<svg viewBox="0 0 330 200" xmlns="http://www.w3.org/2000/svg"><g><g><g><g><g><line x1="28.48000144958496" y1="174.52499961853027" x2="23.48000144958496" y2="174.52499961853027" style="visibility: inherit;" fill="rgb(0, 0, 0)" stroke="rgb(204, 204, 204)" stroke-width="1px"></line><line x1="28.48000144958496" y1="159.98124965031943" x2="23.48000144958496" y2="159.98124965031943" style="visibility: inherit;" fill="rgb(0, 0, 0)" stroke="rgb(204, 204, 204)" stroke-width="1px"></line><line x1="28.48000144958496" y1="145.43749968210855" x2="23.48000144958496" y2="145.43749968210855" style="visibility: inherit;" fill="rgb(0, 0, 0)" stroke="rgb(204, 204, 204)" stroke-width="1px"></line><line x1="28.48000144958496" y1="130.8937497138977" x2="23.48000144958496" y2="130.8937497138977" style="visibility: inherit;" fill="rgb(0, 0, 0)" stroke="rgb(204, 204, 204)" stroke-width="1px"></line><line x1="28.48000144958496" y1="116.34999974568686" x2="23.48000144958496" y2="116.34999974568686" style="visibility: inherit;" fill="rgb(0, 0, 0)" stroke="rgb(204, 204, 204)" stroke-width="1px"></line><line x1="28.48000144958496" y1="101.80624977747598" x2="23.48000144958496" y2="101.80624977747598" style="visibility: inherit;" fill="rgb(0, 0, 0)" stroke="rgb(204, 204, 204)" stroke-width="1px"></line><line x1="28.48000144958496" y1="87.26249980926514" x2="23.48000144958496" y2="87.26249980926514" style="visibility: inherit;" fill="rgb(0, 0, 0)" stroke="rgb(204, 204, 204)" stroke-width="1px"></line><line x1="28.48000144958496" y1="72.71874984105428" x2="23.48000144958496" y2="72.71874984105428" style="visibility: inherit;" fill="rgb(0, 0, 0)" stroke="rgb(204, 204, 204)" stroke-width="1px"></line><line x1="28.48000144958496" y1="58.17499987284343" x2="23.48000144958496" y2="58.17499987284343" style="visibility: inherit;" fill="rgb(0, 0, 0)" stroke="rgb(204, 204, 204)" stroke-width="1px"></line><line x1="28.48000144958496" y1="43.63124990463257" x2="23.48000144958496" y2="43.63124990463257" style="visibility: inherit;" fill="rgb(0, 0, 0)" stroke="rgb(204, 204, 204)" stroke-width="1px"></line><line x1="28.48000144958496" y1="29.087499936421693" x2="23.48000144958496" y2="29.087499936421693" style="visibility: inherit;" fill="rgb(0, 0, 0)" stroke="rgb(204, 204, 204)" stroke-width="1px"></line><line x1="28.48000144958496" y1="14.543749968210875" x2="23.48000144958496" y2="14.543749968210875" style="visibility: inherit;" fill="rgb(0, 0, 0)" stroke="rgb(204, 204, 204)" stroke-width="1px"></line><line x1="28.48000144958496" y1="0" x2="23.48000144958496" y2="0" style="visibility: inherit;" fill="rgb(0, 0, 0)" stroke="rgb(204, 204, 204)" stroke-width="1px"></line></g><g transform="translate(18.48000144958496, 0)"><text style="text-anchor: end; visibility: hidden; font-family: &quot;Helvetica Neue&quot;, sans-serif; font-size: 12px; font-weight: 200;" x="0" y="174.52499961853027" dx="0em" dy="0.3em" fill="rgb(50, 49, 63)" stroke="none" stroke-width="1px">-2</text><text style="text-anchor: end; visibility: inherit; font-family: &quot;Helvetica Neue&quot;, sans-serif; font-size: 12px; font-weight: 200;" x="0" y="159.98124965031943" dx="0em" dy="0.3em" fill="rgb(50, 49, 63)" stroke="none" stroke-width="1px">0</text><text style="text-anchor: end; visibility: hidden; font-family: &quot;Helvetica Neue&quot;, sans-serif; font-size: 12px; font-weight: 200;" x="0" y="145.43749968210855" dx="0em" dy="0.3em" fill="rgb(50, 49, 63)" stroke="none" stroke-width="1px">2</text><text style="text-anchor: end; visibility: inherit; font-family: &quot;Helvetica Neue&quot;, sans-serif; font-size: 12px; font-weight: 200;" x="0" y="130.8937497138977" dx="0em" dy="0.3em" fill="rgb(50, 49, 63)" stroke="none" stroke-width="1px">4</text><text style="text-anchor: end; visibility: hidden; font-family: &quot;Helvetica Neue&quot;, sans-serif; font-size: 12px; font-weight: 200;" x="0" y="116.34999974568686" dx="0em" dy="0.3em" fill="rgb(50, 49, 63)" stroke="none" stroke-width="1px">6</text><text style="text-anchor: end; visibility: inherit; font-family: &quot;Helvetica Neue&quot;, sans-serif; font-size: 12px; font-weight: 200;" x="0" y="101.80624977747598" dx="0em" dy="0.3em" fill="rgb(50, 49, 63)" stroke="none" stroke-width="1px">8</text><text style="text-anchor: end; visibility: hidden; font-family: &quot;Helvetica Neue&quot;, sans-serif; font-size: 12px; font-weight: 200;" x="0" y="87.26249980926514" dx="0em" dy="0.3em" fill="rgb(50, 49, 63)" stroke="none" stroke-width="1px">10</text><text style="text-anchor: end; visibility: inherit; font-family: &quot;Helvetica Neue&quot;, sans-serif; font-size: 12px; font-weight: 200;" x="0" y="72.71874984105428" dx="0em" dy="0.3em" fill="rgb(50, 49, 63)" stroke="none" stroke-width="1px">12</text><text style="text-anchor: end; visibility: hidden; font-family: &quot;Helvetica Neue&quot;, sans-serif; font-size: 12px; font-weight: 200;" x="0" y="58.17499987284343" dx="0em" dy="0.3em" fill="rgb(50, 49, 63)" stroke="none" stroke-width="1px">14</text><text style="text-anchor: end; visibility: inherit; font-family: &quot;Helvetica Neue&quot;, sans-serif; font-size: 12px; font-weight: 200;" x="0" y="43.63124990463257" dx="0em" dy="0.3em" fill="rgb(50, 49, 63)" stroke="none" stroke-width="1px">16</text><text style="text-anchor: end; visibility: hidden; font-family: &quot;Helvetica Neue&quot;, sans-serif; font-size: 12px; font-weight: 200;" x="0" y="29.087499936421693" dx="0em" dy="0.3em" fill="rgb(50, 49, 63)" stroke="none" stroke-width="1px">18</text><text style="text-anchor: end; visibility: inherit; font-family: &quot;Helvetica Neue&quot;, sans-serif; font-size: 12px; font-weight: 200;" x="0" y="14.543749968210875" dx="0em" dy="0.3em" fill="rgb(50, 49, 63)" stroke="none" stroke-width="1px">20</text><text style="text-anchor: end; visibility: hidden; font-family: &quot;Helvetica Neue&quot;, sans-serif; font-size: 12px; font-weight: 200;" x="0" y="0" dx="0em" dy="0.3em" fill="rgb(50, 49, 63)" stroke="none" stroke-width="1px">22</text></g><line x1="28.48000144958496" y1="0" x2="28.48000144958496" y2="174.52499961853027" fill="rgb(0, 0, 0)" stroke="rgb(204, 204, 204)" stroke-width="1px"></line></g></g><g transform="translate(28, 0)" clip-path="url(#clip_0)"><clipPath id="clip_0"><rect width="301" height="174"></rect></clipPath><g><g><g><line x1="0" y1="0" x2="0" y2="174.52499961853027" fill="rgb(0, 0, 0)" stroke="rgb(60, 60, 60)" stroke-width="1px" opacity="0.25"></line><line x1="30.151999855041506" y1="0" x2="30.151999855041506" y2="174.52499961853027" fill="rgb(0, 0, 0)" stroke="rgb(60, 60, 60)" stroke-width="1px" opacity="0.25"></line><line x1="60.30399971008301" y1="0" x2="60.30399971008301" y2="174.52499961853027" fill="rgb(0, 0, 0)" stroke="rgb(60, 60, 60)" stroke-width="1px" opacity="0.25"></line><line x1="90.45599956512451" y1="0" x2="90.45599956512451" y2="174.52499961853027" fill="rgb(0, 0, 0)" stroke="rgb(60, 60, 60)" stroke-width="1px" opacity="0.25"></line><line x1="120.60799942016602" y1="0" x2="120.60799942016602" y2="174.52499961853027" fill="rgb(0, 0, 0)" stroke="rgb(60, 60, 60)" stroke-width="1px" opacity="0.25"></line><line x1="150.75999927520752" y1="0" x2="150.75999927520752" y2="174.52499961853027" fill="rgb(0, 0, 0)" stroke="rgb(60, 60, 60)" stroke-width="1px" opacity="0.25"></line><line x1="180.91199913024903" y1="0" x2="180.91199913024903" y2="174.52499961853027" fill="rgb(0, 0, 0)" stroke="rgb(60, 60, 60)" stroke-width="1px" opacity="0.25"></line><line x1="211.0639989852905" y1="0" x2="211.0639989852905" y2="174.52499961853027" fill="rgb(0, 0, 0)" stroke="rgb(60, 60, 60)" stroke-width="1px" opacity="0.25"></line><line x1="241.21599884033205" y1="0" x2="241.21599884033205" y2="174.52499961853027" fill="rgb(0, 0, 0)" stroke="rgb(60, 60, 60)" stroke-width="1px" opacity="0.25"></line><line x1="271.36799869537356" y1="0" x2="271.36799869537356" y2="174.52499961853027" fill="rgb(0, 0, 0)" stroke="rgb(60, 60, 60)" stroke-width="1px" opacity="0.25"></line><line x1="301.51999855041504" y1="0" x2="301.51999855041504" y2="174.52499961853027" fill="rgb(0, 0, 0)" stroke="rgb(60, 60, 60)" stroke-width="1px" opacity="0.25"></line></g><g><line x1="0" y1="174.52499961853027" x2="301.51999855041504" y2="174.52499961853027" fill="rgb(0, 0, 0)" stroke="rgb(60, 60, 60)" stroke-width="1px" opacity="0.25"></line><line x1="0" y1="159.98124965031943" x2="301.51999855041504" y2="159.98124965031943" fill="rgb(0, 0, 0)" stroke="rgb(60, 60, 60)" stroke-width="1px" opacity="0.25"></line><line x1="0" y1="145.43749968210855" x2="301.51999855041504" y2="145.43749968210855" fill="rgb(0, 0, 0)" stroke="rgb(60, 60, 60)" stroke-width="1px" opacity="0.25"></line><line x1="0" y1="130.8937497138977" x2="301.51999855041504" y2="130.8937497138977" fill="rgb(0, 0, 0)" stroke="rgb(60, 60, 60)" stroke-width="1px" opacity="0.25"></line><line x1="0" y1="116.34999974568686" x2="301.51999855041504" y2="116.34999974568686" fill="rgb(0, 0, 0)" stroke="rgb(60, 60, 60)" stroke-width="1px" opacity="0.25"></line><line x1="0" y1="101.80624977747598" x2="301.51999855041504" y2="101.80624977747598" fill="rgb(0, 0, 0)" stroke="rgb(60, 60, 60)" stroke-width="1px" opacity="0.25"></line><line x1="0" y1="87.26249980926514" x2="301.51999855041504" y2="87.26249980926514" fill="rgb(0, 0, 0)" stroke="rgb(60, 60, 60)" stroke-width="1px" opacity="0.25"></line><line x1="0" y1="72.71874984105428" x2="301.51999855041504" y2="72.71874984105428" fill="rgb(0, 0, 0)" stroke="rgb(60, 60, 60)" stroke-width="1px" opacity="0.25"></line><line x1="0" y1="58.17499987284343" x2="301.51999855041504" y2="58.17499987284343" fill="rgb(0, 0, 0)" stroke="rgb(60, 60, 60)" stroke-width="1px" opacity="0.25"></line><line x1="0" y1="43.63124990463257" x2="301.51999855041504" y2="43.63124990463257" fill="rgb(0, 0, 0)" stroke="rgb(60, 60, 60)" stroke-width="1px" opacity="0.25"></line><line x1="0" y1="29.087499936421693" x2="301.51999855041504" y2="29.087499936421693" fill="rgb(0, 0, 0)" stroke="rgb(60, 60, 60)" stroke-width="1px" opacity="0.25"></line><line x1="0" y1="14.543749968210875" x2="301.51999855041504" y2="14.543749968210875" fill="rgb(0, 0, 0)" stroke="rgb(60, 60, 60)" stroke-width="1px" opacity="0.25"></line><line x1="0" y1="0" x2="301.51999855041504" y2="0" fill="rgb(0, 0, 0)" stroke="rgb(60, 60, 60)" stroke-width="1px" opacity="0.25"></line></g></g></g><g><g><line x1="0" y1="159.98124965031943" x2="301.51999855041504" y2="159.98124965031943" fill="rgb(0, 0, 0)" stroke="rgb(153, 153, 153)" stroke-width="1.5px"></line></g></g><g><g><line x1="30.151999855041506" y1="0" x2="30.151999855041506" y2="174.52499961853027" fill="rgb(0, 0, 0)" stroke="rgb(153, 153, 153)" stroke-width="1.5px"></line></g></g><g><g><g><g><g><path style="fill: none;" stroke="rgb(51, 187, 238)" stroke-width="2px" d="M30.755039852142332,22.15463551208785L31.35807984924316,9.072772351041891L31.961119846343994,3.6035105095002677L32.56415984344483,-1.0346925838559855L33.167199840545656,6.081059851973521L33.770239837646486,6.524051171238597L34.373279834747315,4.290713384154827L34.976319831848144,6.068783051507438L35.579359828948974,7.947712400639745L36.1823998260498,5.07005167128591L36.78543982315063,2.826878880303724L37.38847982025146,7.0453043107631L37.9915198173523,8.636641856486904L38.59455981445313,6.862589814367908L39.19759981155396,9.18240339806303L39.800639808654786,9.851712679192133L40.403679805755615,11.972926778273091L41.006719802856445,14.6970902706434L41.60975979995728,12.8173695657253L42.21279979705811,13.662677070331597L42.81583979415893,15.135583321997018L43.41887979125976,16.30799558376293L44.02191978836059,18.388886332617034L44.62495978546142,20.408108468478986L45.22799978256226,21.272189026642053L45.83103977966309,21.730069284777244L46.434079776763916,22.28631908369468L47.037119773864745,23.584926859022573L47.640159770965575,25.348663145724686L48.243199768066404,27.426826952459976L48.84623976516724,27.108139277090487L49.44927976226807,30.838266920898434L50.0523197593689,33.30490818473234L50.65535975646973,34.801695332682584L51.25839975357056,36.51816179866785L51.86143975067138,38.36593423774394L52.46447974777222,37.36824653663618L53.067519744873046,38.381387357555894L53.670559741973875,38.35938467613022L54.273599739074704,41.204958961744126L54.876639736175534,42.38892493307014L55.47967973327636,41.74049153869959L56.0827197303772,43.610809323282695L56.68575972747803,44.081859941171984L57.28879972457886,45.909321015758735L57.89183972167969,46.272605324312025L58.49487971878052,47.32550565761683L59.09791971588135,50.41626576686585L59.70095971298218,49.928176357277636L60.30399971008301,51.05677931227304L60.90703970718384,53.510823528554994L61.510079704284664,54.71851640261316L62.11311970138549,54.735598608655664L62.71615969848632,51.34857191823775L63.31919969558716,49.613430540621295L63.92223969268799,50.38628086273046L64.52527968978882,51.74372166115582L65.12831968688965,51.138685797412975L65.73135968399048,51.850169124153155L66.33439968109131,52.11249163503622L66.93743967819213,52.76809876360758L67.54047967529297,53.49894327305094L68.14351967239381,53.13286662964299L68.74655966949463,51.43814206655641L69.34959966659547,52.10846863014251L69.95263966369629,53.95531284267493L70.55567966079713,54.51033961967069L71.15871965789795,55.368305328561206L71.76175965499877,55.45105216788218L72.3647996520996,56.53672333244843L72.96783964920044,56.31341081690684L73.57087964630126,55.63037985301726L74.1739196434021,56.393222002535964L74.77695964050292,55.863675773573746L75.37999963760376,57.298592147581545L75.9830396347046,57.19904944468742L76.58607963180542,57.62954269507708L77.18911962890625,58.01330619183416L77.79215962600708,58.61744481837967L78.39519962310791,58.893282998427566L78.99823962020875,60.5776398555974L79.60127961730957,61.53533020320235L80.20431961441041,62.53805931228845L80.80735961151123,62.94494907408176L81.41039960861207,63.156156059869176L82.01343960571289,63.22964094274768L82.61647960281373,63.34401776449535L83.21951959991456,64.90991189617883L83.82255959701538,64.40061843103523L84.42559959411622,64.13393900297373L85.02863959121703,65.61127443358276L85.63167958831787,63.34051286121833L86.23471958541869,63.7220413859319L86.83775958251952,64.28434992267084L87.44079957962036,65.00330807900133L88.04383957672118,64.95061455886075L88.64687957382202,65.26968074524663L89.24991957092284,64.89466911644877L89.85295956802368,64.39747132301551L90.45599956512451,65.61926815785398L91.05903956222534,66.68533355123043L91.66207955932617,65.81125735070472L92.265119556427,67.2658060491734L92.86815955352783,67.24413666364633L93.47119955062867,67.14832638658525L94.07423954772949,67.04121602796421L94.67727954483033,67.2515491337714L95.28031954193115,66.38419891268327L95.88335953903199,65.66579395174921L96.48639953613281,66.16211152345402L97.08943953323364,66.0470928171945L97.69247953033448,66.5102732874621L98.2955195274353,65.18148973498329L98.89855952453614,65.75824626838346L99.50159952163696,65.30499042510719L100.1046395187378,65.85084655511045L100.70767951583863,65.41900966766488L101.31071951293946,65.70574566701681L101.9137595100403,66.36617701269255L102.51679950714112,64.98032367187176L103.11983950424195,64.50323280433803L103.72287950134276,64.39609906455703L104.3259194984436,65.74988051892146L104.92895949554443,64.39592866215422L105.53199949264526,64.75063755096434L106.13503948974609,65.46527214792378L106.73807948684691,65.53283634362981L107.34111948394775,64.78312914673876L107.94415948104857,64.91058444579868L108.54719947814941,65.201338470051L109.15023947525025,65.4394664328133L109.75327947235107,64.67715452864503L110.3563194694519,66.13160407466168L110.95935946655273,66.33656762288356L111.56239946365356,65.7119814899567L112.1654394607544,66.00159209809225L112.76847945785522,66.15601017614276L113.37151945495606,67.74535274805888L113.97455945205688,67.80577969037006L114.57759944915772,68.20103826355944L115.18063944625855,67.98348343476283L115.78367944335938,67.83705563913459L116.38671944046021,67.90322271375699L116.98975943756103,66.7460319191697L117.59279943466187,66.53837209591953L118.1958394317627,66.59201561310687L118.79887942886353,66.6632539643155L119.40191942596437,67.16286670250057L120.00495942306519,68.55385420322222L120.60799942016602,68.37887720968796L121.21103941726685,70.0609858887284L121.81407941436768,69.31852526897664L122.41711941146852,68.76378745556283L123.02015940856933,68.48187149565197L123.62319940567016,68.62500327049104L124.22623940277099,68.97460290969573L124.82927939987182,69.01045440063957L125.43231939697264,68.56816572683537L126.03535939407348,67.34816036938007L126.63839939117432,68.19178400765375L127.24143938827514,67.90588492446524L127.84447938537598,67.40642016638142L128.4475193824768,66.76544726212258L129.05055937957763,66.95397840036041L129.65359937667847,67.39685694537836L130.2566393737793,67.7354116354863L130.85967937088012,67.82375211032468L131.46271936798095,70.00961800581977L132.0657593650818,71.02966189580366L132.66879936218263,71.21149504737573L133.27183935928346,71.06396517390763L133.87487935638427,70.21271723460339L134.4779193534851,67.71375951653155L135.08095935058594,68.11752337899483L135.68399934768678,66.66058886781188L136.28703934478762,66.69456577501435L136.89007934188842,66.38935588673543L137.49311933898926,66.25965088835673L138.0961593360901,66.56541710424797L138.69919933319093,66.21001471730088L139.30223933029174,65.18938767851222L139.90527932739258,65.52740155933968L140.5083193244934,64.84910882584437L141.11135932159425,66.30503525052565L141.71439931869506,67.29672516800004L142.3174393157959,67.097684006368L142.92047931289673,67.18652548471036L143.52351930999754,67.82075690046693L144.12655930709838,67.98701081875187L144.7295993041992,67.08663582465358L145.33263930130005,67.07263872027485L145.93567929840088,67.31983840167055L146.5387192955017,68.20959749782558L147.14175929260253,67.63161992683419L147.74479928970337,68.00872475352945L148.3478392868042,65.85078960123657L148.95087928390504,66.5124491529661L149.55391928100585,67.00492324926068L150.15695927810668,65.60586009983021L150.75999927520752,65.45246422433411L151.36303927230836,65.18471222847552L151.9660792694092,66.50652847167697L152.56911926651,65.18794371786451L153.17215926361084,65.68216562333393L153.77519926071167,66.25076810848408L154.3782392578125,66.19655963753468L154.98127925491335,67.20878261634384L155.58431925201415,65.97722721353706L156.187359249115,66.675621823325L156.79039924621583,66.05432714478046L157.39343924331666,66.81272687657702L157.9964792404175,66.54690429528333L158.5995192375183,66.09322689652443L159.20255923461914,66.56044758910517L159.80559923171998,67.2874658070129L160.40863922882082,67.32371726830073L161.01167922592165,67.63938351984338L161.61471922302246,68.15563432185785L162.2177592201233,69.69841938344078L162.82079921722413,69.19082995094205L163.42383921432497,70.31073577607104L164.02687921142578,69.38374002002267L164.62991920852662,69.6875406176717L165.23295920562745,70.74147452492973L165.8359992027283,69.67047057962354L166.43903919982912,69.95326341396249L167.04207919692993,69.15082666830062L167.64511919403077,68.77821729830684L168.2481591911316,68.28811472651769L168.85119918823244,68.39013995524421L169.45423918533328,69.19684516610155L170.05727918243406,68.1792939603103L170.6603191795349,66.82394946360378L171.26335917663573,68.09567994033023L171.86639917373657,68.18246061186863L172.46943917083738,68.21814415742296L173.0724791679382,68.03945994352937L173.67551916503905,67.87221671103349L174.27855916213989,69.58369455628767L174.88159915924072,70.18687405399001L175.48463915634153,69.57320111587812L176.08767915344237,69.6063494864527L176.6907191505432,69.34116930582907L177.29375914764404,68.16841559591678L177.89679914474488,67.90741031109243L178.49983914184568,67.46886022060923L179.10287913894652,67.7320217070906L179.70591913604736,68.54678740150653L180.3089591331482,69.91153754172774L180.91199913024903,68.25808934800844L181.51503912734984,68.22766039097003L182.11807912445067,68.2492702399909L182.7211191215515,67.49320778350535L183.32415911865235,67.47284063849202L183.92719911575318,66.44126219894302L184.530239112854,66.66679168531219L185.13327910995483,66.70073054810057L185.73631910705566,65.97319430979383L186.3393591041565,65.60330396523275L186.94239910125734,64.3526423108806L187.54543909835814,63.74898077668911L188.14847909545898,65.22159704299634L188.75151909255982,66.54251983793972L189.35455908966065,67.5632542444682L189.95759908676146,67.468258420494L190.5606390838623,67.3079386585262L191.16367908096313,67.73611454758081L191.76671907806397,67.97477683120455L192.3697590751648,68.54309635021714L192.97279907226562,69.03573640992971L193.57583906936645,67.82923627193223L194.1788790664673,68.63080711095537L194.78191906356813,67.47550093078335L195.38495906066896,68.0379867391503L195.98799905776977,66.7920355868644L196.5910390548706,67.71399641292687L197.19407905197144,67.24182251926209L197.79711904907228,67.39567526120311L198.40015904617312,66.73961716986459L199.00319904327392,66.30827859086351L199.60623904037476,66.0645099466585L200.2092790374756,65.84681891581306L200.81231903457643,65.08348207324441L201.41535903167727,65.48017911199402L202.01839902877808,65.40604854764622L202.6214390258789,66.62657737242739L203.22447902297975,65.69417100307211L203.8275190200806,65.22895207367115L204.43055901718142,65.18118892468362L205.03359901428223,66.3586366372804L205.63663901138307,65.74913585623914L206.2396790084839,67.22177401642088L206.84271900558474,67.37996135320027L207.44575900268552,67.09116145937733L208.04879899978636,67.98673576016343" fill="none"></path></g><g><path style="fill: none;" stroke="rgb(0, 119, 187)" stroke-width="2px" d="M30.755039852142332,24.696035760305676L31.35807984924316,11.195128228605626L31.961119846343994,5.477040127475419L32.56415984344483,0.022808738754690694L33.167199840545656,7.055231635212351L33.770239837646486,7.4080491342535595L34.373279834747315,4.648184072994809L34.976319831848144,5.9165692536267045L35.579359828948974,7.879081117119654L36.1823998260498,5.376238599879315L36.78543982315063,4.038240030072245L37.38847982025146,9.179044966838774L37.9915198173523,11.938083418469603L38.59455981445313,11.443973665296852L39.19759981155396,15.536238572012962L39.800639808654786,17.558855104497667L40.403679805755615,21.21614077676054L41.006719802856445,24.714519846875277L41.60975979995728,24.66273547975362L42.21279979705811,26.808998161942185L42.81583979415893,30.23501885601766L43.41887979125976,33.261567830364555L44.02191978836059,36.391166553117074L44.62495978546142,39.70144846800156L45.22799978256226,41.22616686566687L45.83103977966309,42.52596589576589L46.434079776763916,43.82609929752161L47.037119773864745,45.89183486758674L47.640159770965575,48.12366266576426L48.243199768066404,50.26818247299538L48.84623976516724,50.71472445124185L49.44927976226807,54.68564868787671L50.0523197593689,57.40011132083595L50.65535975646973,59.32593356036391L51.25839975357056,61.324197491901L51.86143975067138,63.618513945519354L52.46447974777222,63.43318708804274L53.067519744873046,64.77304074466919L53.670559741973875,65.80859691196625L54.273599739074704,68.2847392185505L54.876639736175534,70.16197083659225L55.47967973327636,70.11280027765092L56.0827197303772,71.48417724396879L56.68575972747803,72.27443384034429L57.28879972457886,73.9654112929526L57.89183972167969,74.55878650974324L58.49487971878052,75.54098420047652L59.09791971588135,78.22660052263952L59.70095971298218,77.90126366912952L60.30399971008301,79.10223020148527L60.90703970718384,81.00392810351883L61.510079704284664,82.15961260090752L62.11311970138549,82.55571542192985L62.71615969848632,80.29692324869757L63.31919969558716,79.09167406533413L63.92223969268799,79.54651002102935L64.52527968978882,80.75383445754267L65.12831968688965,80.7711219546717L65.73135968399048,81.28852603414556L66.33439968109131,81.60276418850957L66.93743967819213,82.116479890331L67.54047967529297,83.10644138105152L68.14351967239381,83.16615378995043L68.74655966949463,82.00595628642075L69.34959966659547,82.55367338471484L69.95263966369629,83.80642053060636L70.55567966079713,84.56429036334073L71.15871965789795,85.2267825875355L71.76175965499877,85.44055592645681L72.3647996520996,86.22639610850396L72.96783964920044,86.22047823238668L73.57087964630126,86.0593157357068L74.1739196434021,86.86573827116459L74.77695964050292,86.58053072359618L75.37999963760376,87.29779283506095L75.9830396347046,87.28297167511398L76.58607963180542,87.352702321097L77.18911962890625,87.4241096890399L77.79215962600708,87.750126280183L78.39519962310791,87.98160813231465L78.99823962020875,89.31420080232232L79.60127961730957,89.90280776475348L80.20431961441041,90.70959564128752L80.80735961151123,91.03784121144808L81.41039960861207,91.10250724304572L82.01343960571289,91.12047776095591L82.61647960281373,91.23462683565113L83.21951959991456,92.40916093502842L83.82255959701538,91.96046249503958L84.42559959411622,91.61249635024235L85.02863959121703,92.75269705951155L85.63167958831787,91.09416445935172L86.23471958541869,91.30191303356078L86.83775958251952,91.8292790278552L87.44079957962036,92.2834472054003L88.04383957672118,92.22824059606565L88.64687957382202,92.50889697446854L89.24991957092284,92.28494428893542L89.85295956802368,92.0979011332622L90.45599956512451,92.74813129001318L91.05903956222534,93.26746446220226L91.66207955932617,92.37660487270348L92.265119556427,93.3768474662258L92.86815955352783,93.22242392995373L93.47119955062867,93.20074991938615L94.07423954772949,93.1470252631074L94.67727954483033,93.38032203220645L95.28031954193115,92.84912325174164L95.88335953903199,92.44218275629339L96.48639953613281,92.7935657825736L97.08943953323364,92.79174590465271L97.69247953033448,93.02222636208651L98.2955195274353,91.93147753374816L98.89855952453614,92.27606972958264L99.50159952163696,91.89226654232172L100.1046395187378,92.18057424584782L100.70767951583863,91.83916256138976L101.31071951293946,92.17882674850222L101.9137595100403,92.83647069882367L102.51679950714112,91.93178488779289L103.11983950424195,91.66623374465593L103.72287950134276,91.28501499026486L104.3259194984436,92.27031034147114L104.92895949554443,90.95129480592786L105.53199949264526,91.16302130878164L106.13503948974609,91.78266156026375L106.73807948684691,91.9241999130208L107.34111948394775,91.43811903229643L107.94415948104857,91.62468726274348L108.54719947814941,91.65654527761657L109.15023947525025,91.90756206094625L109.75327947235107,91.45961031973833L110.3563194694519,92.48558772051405L110.95935946655273,92.73659857248578L111.56239946365356,92.11144783463381L112.1654394607544,92.27972872542698L112.76847945785522,92.44897688925562L113.37151945495606,93.56955210959211L113.97455945205688,93.75256056392713L114.57759944915772,93.89422685725422L115.18063944625855,93.76791346391097L115.78367944335938,93.53481540594485L116.38671944046021,93.71137990474251L116.98975943756103,92.85233643866786L117.59279943466187,92.74960428494073L118.1958394317627,92.8404935347622L118.79887942886353,92.9187853476546L119.40191942596437,93.3010095704481L120.00495942306519,94.29878145524258L120.60799942016602,94.17516832326031L121.21103941726685,95.50791926799728L121.81407941436768,94.87572380934832L122.41711941146852,94.27463776660929L123.02015940856933,94.1018595616313L123.62319940567016,94.19829670047255L124.22623940277099,94.24236777979966L124.82927939987182,94.16565352025806L125.43231939697264,93.95652383603922L126.03535939407348,93.1469176918784L126.63839939117432,93.69466201662703L127.24143938827514,93.48473263184594L127.84447938537598,93.11794260682426L128.4475193824768,92.66479169874866L129.05055937957763,92.63254200654838L129.65359937667847,92.90169878604362L130.2566393737793,93.18225349747892L130.85967937088012,93.45683167872748L131.46271936798095,95.10323755484859L132.0657593650818,95.88519344914396L132.66879936218263,95.93885918326811L133.27183935928346,95.82105576829073L133.87487935638427,95.03111361101426L134.4779193534851,93.07103627549402L135.08095935058594,93.23510110483946L135.68399934768678,92.09657531727439L136.28703934478762,92.23002615565811L136.89007934188842,91.90455494374083L137.49311933898926,91.7985530500529L138.0961593360901,92.06030523063286L138.69919933319093,91.9580324962009L139.30223933029174,91.3967587466926L139.90527932739258,91.46773523097198L140.5083193244934,91.02111399950422L141.11135932159425,92.23038857068785L141.71439931869506,92.8218204435618L142.3174393157959,92.69055027408712L142.92047931289673,92.86533943818387L143.52351930999754,93.26370580561165L144.12655930709838,93.51497558388665L144.7295993041992,92.98538609581018L145.33263930130005,92.96950783705795L145.93567929840088,93.21191754278334L146.5387192955017,93.78050092668104L147.14175929260253,93.39429874593726L147.74479928970337,93.6651002859348L148.3478392868042,91.98931287745182L148.95087928390504,92.28043095415131L149.55391928100585,92.79537935847013L150.15695927810668,91.7105739145655L150.75999927520752,91.6049309775349L151.36303927230836,91.39835482561955L151.9660792694092,92.23871672215944L152.56911926651,91.29808245663865L153.17215926361084,91.66260317821326L153.77519926071167,92.08710288256644L154.3782392578125,91.7942466768244L154.98127925491335,92.44361100116132L155.58431925201415,91.44881007537012L156.187359249115,91.94550417120651L156.79039924621583,91.6474318879177L157.39343924331666,92.14210261114691L157.9964792404175,92.0907012268384L158.5995192375183,91.6864364431314L159.20255923461914,92.04137632025606L159.80559923171998,92.63413055203425L160.40863922882082,92.88053012747865L161.01167922592165,93.32869355210235L161.61471922302246,93.58985585373115L162.2177592201233,94.72608625059043L162.82079921722413,94.21945988717007L163.42383921432497,94.98842164755547L164.02687921142578,94.3942154996227L164.62991920852662,94.47747885506774L165.23295920562745,95.0370388159873L165.8359992027283,94.40227392107857L166.43903919982912,94.6972612700677L167.04207919692993,94.19435947288761L167.64511919403077,93.6875082758137L168.2481591911316,93.38265942459539L168.85119918823244,93.45263508870481L169.45423918533328,94.14999078528668L170.05727918243406,93.3919477906795L170.6603191795349,92.4819914448865L171.26335917663573,93.43523910631751L171.86639917373657,93.30515319129306L172.46943917083738,93.29156645365867L173.0724791679382,93.22393476656674L173.67551916503905,93.08432450236127L174.27855916213989,94.28676768921997L174.88159915924072,94.79867472739315L175.48463915634153,94.2893826175048L176.08767915344237,94.18976390029995L176.6907191505432,93.87535485659802L177.29375914764404,93.0687472238158L177.89679914474488,93.012483463287L178.49983914184568,92.7450961583396L179.10287913894652,92.70357318164316L179.70591913604736,93.41851292741929L180.3089591331482,94.43000426217287L180.91199913024903,93.39649842278455L181.51503912734984,93.37678294453852L182.11807912445067,93.34977059305461L182.7211191215515,92.65888105120227L183.32415911865235,92.69265527767138L183.92719911575318,92.03684442817848L184.530239112854,92.06400793623584L185.13327910995483,92.07788197390461L185.73631910705566,91.63013625625466L186.3393591041565,91.49379490476186L186.94239910125734,90.68618859359299L187.54543909835814,90.19676267644742L188.14847909545898,91.36194761195581L188.75151909255982,92.37184217726404L189.35455908966065,93.07129101244516L189.95759908676146,93.03390099222072L190.5606390838623,92.96151461556812L191.16367908096313,93.21092289231284L191.76671907806397,93.33684710150175L192.3697590751648,93.66472535662909L192.97279907226562,94.0742641297074L193.57583906936645,93.4192395341685L194.1788790664673,94.0762442600433L194.78191906356813,93.16732721569757L195.38495906066896,93.51612215175166L195.98799905776977,92.6554024441512L196.5910390548706,93.23155382019762L197.19407905197144,92.91268245182879L197.79711904907228,92.92153321571783L198.40015904617312,92.33678637692805L199.00319904327392,91.94445209251023L199.60623904037476,91.89713167251466L200.2092790374756,91.56009296692547L200.81231903457643,91.06883603836562L201.41535903167727,91.44597618415173L202.01839902877808,91.40394594335548L202.6214390258789,92.27996026688712L203.22447902297975,91.62338041009485L203.8275190200806,91.13511039963709L204.43055901718142,91.07102168603807L205.03359901428223,91.89765074171149L205.63663901138307,91.54203031212111L206.2396790084839,92.69878121769662L206.84271900558474,92.77572387458078L207.44575900268552,92.67075875766483L208.04879899978636,93.23811355329262L208.6518389968872,93.15614977704946L209.25487899398803,93.73716249065438L209.85791899108887,92.87750265817847L210.46095898818967,93.02160603158805L211.0639989852905,94.0859857755988L211.66703898239135,93.69341152729828L212.27007897949218,92.89625571419701L212.87311897659302,92.6224257610055L213.47615897369383,92.6786982722126L214.07919897079466,91.86630124812302L214.6822389678955,91.3115539582897L215.28527896499634,91.51144033817285L215.88831896209715,91.33982858157168L216.49135895919798,91.4235320048576L217.09439895629882,91.76930050454966L217.69743895339965,92.11327889331488L218.3004789505005,92.1480312874795L218.9035189476013,92.35772413826959L219.50655894470214,93.18829720819001L220.10959894180297,92.35307669007982L220.7126389389038,91.22806253981176L221.31567893600464,91.38014460391744L221.91871893310545,90.74061618466916L222.5217589302063,89.95482052630686L223.12479892730713,89.27826095916656L223.72783892440796,89.84054667872012L224.3308789215088,90.61186490464434L224.9339189186096,91.85916849059683L225.53695891571044,93.24192436872048L226.13999891281128,93.82095460759456L226.74303890991212,94.08910877168135L227.34607890701295,94.0960265396948L227.94911890411376,93.63304941468866L228.5521589012146,93.90587786418918L229.15519889831543,94.36497443569976L229.75823889541627,93.37488681857135L230.3612788925171,93.56873304319828L230.9643188896179,94.02108165417773L231.56735888671875,93.53622243479762L232.1703988838196,93.85821403194647L232.77343888092042,93.57513616131784L233.37647887802126,93.42375752277229L233.97951887512207,93.5510481594627L234.5825588722229,94.76528812482434L235.18559886932374,95.15166879461206L235.78863886642458,95.57007361148234L236.3916788635254,95.4135472689579L236.99471886062622,95.08433619265413L237.59775885772706,94.62780263352829L238.2007988548279,94.34060127564062L238.80383885192873,93.75337182045622L239.40687884902954,93.87483895963788L240.00991884613038,93.98493322717844L240.6129588432312,94.28364240966498L241.21599884033205,93.44901500759154L241.81903883743288,92.63252067351273L242.4220788345337,92.2701135288189L243.02511883163453,93.29068348712705L243.62815882873537,93.85592697235458L244.2311988258362,93.21129475681951L244.83423882293704,92.42275696228292L245.43727882003782,91.64213030510156L246.04031881713865,91.75688398653857L246.6433588142395,92.51869508787621L247.24639881134033,92.47267591297835L247.84943880844114,92.26880753077026L248.45247880554197,92.51995371956455L249.0555188026428,93.15054827962842L249.65855879974364,93.9661697008335L250.26159879684448,94.225855883132L250.8646387939453,93.83082084467728L251.46767879104613,93.72951153977415L252.07071878814696,93.06943482831637L252.6737587852478,93.49754741491697L253.27679878234864,93.42397479555237L253.87983877944944,93.63920696139945L254.48287877655028,93.23456999808926L255.08591877365112,93.89127114120066L255.68895877075195,94.27557788605156L256.29199876785276,94.06150567196863L256.8950387649536,93.08555901510954L257.49807876205443,93.93513503756577L258.10111875915527,93.24222691226949L258.7041587562561,93.13884299705228L259.30719875335694,92.70903139268722L259.9102387504578,92.42876066085564L260.5132787475586,91.85041911086411L261.1163187446594,92.47595485780435L261.71935874176023,93.13063557946853L262.32239873886107,92.689676315727L262.9254387359619,92.81665183774385L263.52847873306274,91.97915338124942L264.1315187301636,92.91518502096382L264.7345587272644,92.7349343468764L265.33759872436525,92.60791388058028L265.9406387214661,93.43195964698818L266.5436787185669,93.160687368539L267.1467187156677,94.08824629912898L267.74975871276854,94.18419614697264L268.3527987098694,94.495456724214L268.9558387069702,95.1465423267606L269.55887870407105,95.03815107322075" fill="none"></path></g></g></g></g><g opacity="0.2"><g><g><g><path style="fill: none;" stroke="rgb(51, 187, 238)" stroke-width="2px" d="M30.755039852142332,22.15463551208785L31.35807984924316,-2.557003999127886L32.56415984344483,-12.082504454667742L33.167199840545656,27.474737852363262L33.770239837646486,8.101897442513462L34.373279834747315,-4.766453517985923L34.976319831848144,14.059936599994217L35.579359828948974,17.125192908764063L36.1823998260498,-9.983709802263235L36.78543982315063,-9.599358209847338L37.38847982025146,31.569911071199215L37.9915198173523,18.27595913587828L38.59455981445313,-4.267813118904542L39.19759981155396,24.183677930424267L39.800639808654786,14.294450573671384L40.403679805755615,26.37597025828171L41.006719802856445,33.56276665742524L41.60975979995728,-0.4263915648677141L42.21279979705811,19.708771829441787L42.81583979415893,25.81062902531022L43.41887979125976,24.904266082449965L44.02191978836059,33.80257897141138L44.62495978546142,35.499878710400196L45.22799978256226,27.78168097026463L45.83103977966309,25.203650049910436L46.434079776763916,26.532257427396587L47.037119773864745,33.55157356677245L47.640159770965575,38.95052686164655L48.243199768066404,43.522065258264774L48.84623976516724,24.630583226488397L49.44927976226807,59.93439560545373L50.0523197593689,52.60260221785377L50.65535975646973,46.54259081442585L51.25839975357056,50.01366254186337L51.86143975067138,52.92388691659153L52.46447974777222,29.493377770093048L53.067519744873046,46.39126217060016L53.670559741973875,38.185180217010554L54.273599739074704,63.763493663771825L54.876639736175534,51.78561756020615L55.47967973327636,36.58890956391389L56.0827197303772,58.48320516081837L56.68575972747803,47.830552154541465L57.28879972457886,60.462849571273864L57.89183972167969,49.167550882517006L58.49487971878052,55.7205714646979L59.09791971588135,75.07201046329958L59.70095971298218,46.032847479696954L60.30399971008301,60.06743665321285L60.90703970718384,73.11051494890255L61.510079704284664,64.36697739896779L62.11311970138549,54.87210884021442L62.71615969848632,24.274956405747787L63.31919969558716,35.74085610445428L63.92223969268799,56.56646813903171L64.52527968978882,62.600521835945756L65.12831968688965,46.29887409521194L65.73135968399048,57.54225043594063L66.33439968109131,54.21140441668126L66.93743967819213,58.014350588474144L67.54047967529297,59.34781246624341L68.14351967239381,50.20294644290266L68.74655966949463,37.87327163881963L69.34959966659547,57.474238886974106L69.95263966369629,68.73964772398774L70.55567966079713,58.95366865325643L71.15871965789795,62.237169424754555L71.76175965499877,56.11355019761693L72.3647996520996,65.22928228425856L72.96783964920044,54.52537268999231L73.57087964630126,50.16126709047187L74.1739196434021,62.50155244517373L74.77695964050292,51.62332468074101L75.37999963760376,68.78894864186304L75.9830396347046,56.40192831943553L76.58607963180542,61.07691611708704L77.18911962890625,61.08651415764682L77.79215962600708,63.45549642580902L78.39519962310791,61.10227047856574L78.99823962020875,74.06656716966079L79.60127961730957,69.20492383612327L80.20431961441041,70.56840733064344L80.80735961151123,66.20354581607891L81.41039960861207,64.847628407L82.01343960571289,63.81815533695976L82.61647960281373,64.26002582273024L83.21951959991456,77.45072253702922L83.82255959701538,60.32181246804839L84.42559959411622,61.9981615708153L85.02863959121703,77.44296920657705L85.63167958831787,45.15437017346295L86.23471958541869,66.7776459545612L86.83775958251952,68.78780436679631L87.44079957962036,70.7613598468967L88.04383957672118,64.5285975833937L88.64687957382202,67.82505293564736L89.24991957092284,61.89123079957896L89.85295956802368,60.415448843509395L90.45599956512451,75.40456453769457L91.05903956222534,75.2233945871285L91.66207955932617,58.810821514925394L92.265119556427,78.91522818244114L92.86815955352783,67.07058730664592L93.47119955062867,66.38098473642738L94.07423954772949,66.18337189990234L94.67727954483033,68.93610241544525L95.28031954193115,59.43760685148034L95.88335953903199,59.91209957915339L96.48639953613281,70.13711272048977L97.08943953323364,65.12590916822971L97.69247953033448,70.21988195031697L98.2955195274353,54.539270430802844L98.89855952453614,70.3774867695087L99.50159952163696,61.67486572196026L100.1046395187378,70.22260740547593L100.70767951583863,61.96042823361465L101.31071951293946,68.00221445597965L101.9137595100403,71.65557266904837L102.51679950714112,53.88102099741286L103.11983950424195,60.682210569067294L103.72287950134276,63.53806454062449L104.3259194984436,76.59232205696617L104.92895949554443,53.55212166823101L105.53199949264526,67.59150292702641L106.13503948974609,71.18878472682468L106.73807948684691,66.0739583985212L107.34111948394775,58.778719398053155L107.94415948104857,65.93137479020554L108.54719947814941,67.52998947343887L109.15023947525025,67.3466349977454L109.75327947235107,58.571792855984924L110.3563194694519,77.78030149625071L110.95935946655273,67.97812226457457L111.56239946365356,60.709666235668536L112.1654394607544,68.32108577457666L112.76847945785522,67.39274581543464L113.37151945495606,80.47441045337473L113.97455945205688,68.2897395727485L114.57759944915772,71.36666748719904L115.18063944625855,66.24108497326824L115.78367944335938,66.66431417795154L116.38671944046021,68.43315538111271L116.98975943756103,57.47808087719818L117.59279943466187,64.87522277360934L118.1958394317627,67.02164700879166L118.79887942886353,67.23380254116485L119.40191942596437,71.16426950039492L120.00495942306519,79.6942853228768L120.60799942016602,66.97748492621606L121.21103941726685,83.53300916175628L121.81407941436768,63.372151590948235L122.41711941146852,64.32088738627976L123.02015940856933,66.22400406727206L123.62319940567016,69.77134692915781L124.22623940277099,71.77454953598726L124.82927939987182,69.29758931152764L125.43231939697264,65.02587178739539L126.03535939407348,57.57712655297466L126.63839939117432,74.94837327608889L127.24143938827514,65.61611660681926L127.84447938537598,63.40620244293412L128.4475193824768,61.631889524453825L129.05055937957763,68.4639259779073L129.65359937667847,70.94387518754122L130.2566393737793,70.44689918855693L130.85967937088012,68.53127176683499L131.46271936798095,87.51623760406346L132.0657593650818,79.19920257900291L132.66879936218263,72.66779839308272L133.27183935928346,69.88239709063441L133.87487935638427,63.39506483228456L134.4779193534851,47.69958467190327L135.08095935058594,71.35127178630114L135.68399934768678,54.99198725720589L136.28703934478762,66.96668713058632L136.89007934188842,63.94492714435326L137.49311933898926,65.22084238876634L138.0961593360901,69.01430148000593L138.69919933319093,63.363593800449124L139.30223933029174,57.01517653520098L139.90527932739258,68.23455777453023L140.5083193244934,59.41665621525847L141.11135932159425,77.96556309705541L141.71439931869506,75.23917864804905L142.3174393157959,65.5035615502549L142.92047931289673,67.8980576849051L143.52351930999754,72.90032202164382L144.12655930709838,69.31853994774951L144.7295993041992,59.87552438702028L145.33263930130005,66.96053578522758L145.93567929840088,69.29966287664858L146.5387192955017,75.33568611367748L147.14175929260253,63.00259235439505L147.74479928970337,71.02896070750353L148.3478392868042,48.567867527542674L148.95087928390504,71.81168646315314L149.55391928100585,70.94915272284902L150.15695927810668,54.40075073272419L150.75999927520752,64.22391527562422L151.36303927230836,63.04028408159327L151.9660792694092,77.09296667116443L152.56911926651,54.62738654594189L153.17215926361084,69.64039331652043L153.77519926071167,70.80471053442496L154.3782392578125,65.7624035053509L154.98127925491335,75.31568557251103L155.58431925201415,56.113688897625025L156.187359249115,72.26907054482838L156.79039924621583,61.078372467171974L157.39343924331666,72.8867571608527L157.9964792404175,64.41792884693935L158.5995192375183,62.45972052273403L159.20255923461914,70.30242232513085L159.80559923171998,73.11016126388192L160.40863922882082,67.61405554834171L161.01167922592165,70.16755737226534L161.61471922302246,72.29029164606602L162.2177592201233,82.05459884053342L162.82079921722413,65.12554161320827L163.42383921432497,79.2800716187193L164.02687921142578,61.959422658555994L164.62991920852662,72.12068234117419L165.23295920562745,79.18244068302533L165.8359992027283,61.09279033301284L166.43903919982912,72.21815377185885L167.04207919692993,62.724103543153205L167.64511919403077,65.7939854971928L168.2481591911316,64.36287881372876L168.85119918823244,69.20726093125957L169.45423918533328,75.65775446746095L170.05727918243406,60.029717186013L170.6603191795349,55.9689831791856L171.26335917663573,78.28098078545099L171.86639917373657,68.87748779202677L172.46943917083738,68.50393399524062L173.0724791679382,66.60837646468917L173.67551916503905,66.53276415527937L174.27855916213989,83.29093603763825L174.88159915924072,75.01774408513468L175.48463915634153,64.65828902595747L176.08767915344237,69.87183508501842L176.6907191505432,67.21733885020467L177.29375914764404,58.77582056788408L177.89679914474488,65.81701663353601L178.49983914184568,63.95650859502871L179.10287913894652,69.83968442314335L179.70591913604736,75.07225318831372L180.3089591331482,80.84183370980334L180.91199913024903,55.01560786858347L181.51503912734984,67.98395459991472L182.11807912445067,68.42234371548216L182.7211191215515,61.437896758139914L183.32415911865235,67.30971999059246L183.92719911575318,58.17934118309661L184.530239112854,68.47305937343997L185.13327910995483,66.9725472059281L185.73631910705566,60.146350022815184L186.3393591041565,62.64084886329768L186.94239910125734,54.33608185395262L187.54543909835814,58.91425011095748L188.14847909545898,77.01579398666361L188.75151909255982,77.12180240284617L189.35455908966065,75.73832530215994L189.95759908676146,66.70743601046645L190.5606390838623,66.02393624060385L191.16367908096313,71.16537910045963L191.76671907806397,69.88622521085767L192.3697590751648,73.09477249798442L192.97279907226562,72.98129508636627L193.57583906936645,58.16636579733988L194.1788790664673,75.0505951820506L194.78191906356813,58.22264332562206L195.38495906066896,72.54294064580085L195.98799905776977,56.81320158342153L196.5910390548706,75.09798897481467L197.19407905197144,63.460177551082026L197.79711904907228,68.62788325746949L198.40015904617312,61.485242005901156L199.00319904327392,62.85368402571051L199.60623904037476,64.11216467910678L200.2092790374756,64.1033294885915L200.81231903457643,58.96991042420366L201.41535903167727,68.65732926918683L202.01839902877808,64.81233618994172L202.6214390258789,76.40180372585489L203.22447902297975,58.226519990848146L203.8275190200806,61.50300947693738L204.43055901718142,64.79865343414372L205.03359901428223,75.78882597510521L205.63663901138307,60.867638609881695L206.2396790084839,79.01614630832682L206.84271900558474,68.64688515857772L207.44575900268552,64.77816050794854L208.04879899978636,75.15939840339615" fill="none"></path></g><g><path style="fill: none;" stroke="rgb(0, 119, 187)" stroke-width="2px" d="M30.755039852142332,24.696035760305676L31.35807984924316,-0.8071785670757379L32.56415984344483,-12.968714286352679L33.167199840545656,28.198377404566884L33.770239837646486,8.664714335337692L34.373279834747315,-6.544282481671274L34.976319831848144,11.617054967522108L35.579359828948974,17.464813748571203L36.1823998260498,-7.716755260051428L36.78543982315063,-3.3737112567593215L37.38847982025146,39.06607783838564L37.9915198173523,28.65059491094081L38.59455981445313,8.343928956629043L39.19759981155396,41.99922238945055L39.800639808654786,30.98456929706134L40.403679805755615,46.04911005564537L41.006719802856445,48.94187903435552L41.60975979995728,24.297883517084927L42.21279979705811,42.16022535884048L42.81583979415893,55.065470521491534L43.41887979125976,55.45259611406921L44.02191978836059,59.57290870937133L44.62495978546142,64.44266599338205L45.22799978256226,52.71252890926485L45.83103977966309,52.38652841025207L46.434079776763916,53.75021301978397L47.037119773864745,61.74608817611404L47.640159770965575,65.3354294004492L48.243199768066404,66.87734352037569L48.84623976516724,54.18625117021429L49.44927976226807,85.66006394080894L50.0523197593689,78.63662841119283L50.65535975646973,74.43220813098544L51.25839975357056,77.03529520780096L51.86143975067138,81.6946307095396L52.46447974777222,61.97037995919504L53.067519744873046,75.36590191043972L53.670559741973875,74.00752951121763L54.273599739074704,87.91457015729475L54.876639736175534,85.06085216586212L55.47967973327636,69.722156971289L56.0827197303772,82.38909471504167L56.68575972747803,78.56341561192296L57.28879972457886,87.4320120241513L57.89183972167969,79.28728401913993L58.49487971878052,83.37231826738457L59.09791971588135,99.65041474674481L59.70095971298218,75.30482536187765L60.30399971008301,88.69063137755566L60.90703970718384,96.19220051005718L61.510079704284664,91.39256995013633L62.11311970138549,85.7211196843698L62.71615969848632,62.241656370016244L63.31919969558716,69.45562410074444L63.92223969268799,83.18365851638168L64.52527968978882,90.41000522283184L65.12831968688965,80.90940835374438L65.73135968399048,85.4279148022697L66.33439968109131,84.11706796081937L66.93743967819213,86.22729842889082L67.54047967529297,91.02899561893219L68.14351967239381,83.64406625823328L68.74655966949463,72.71953349609998L69.34959966659547,86.93799033533931L69.95263966369629,93.83489678257607L70.55567966079713,90.63150220074985L71.15871965789795,90.53068809987022L71.76175965499877,87.15209460282615L72.3647996520996,92.51832163079166L72.96783964920044,86.17309446572956L73.57087964630126,84.7688678438332L74.1739196434021,93.32303133772339L74.77695964050292,84.29672608129727L75.37999963760376,93.04140097129834L75.9830396347046,87.16428633353719L76.58607963180542,87.91110265709253L77.18911962890625,87.99594545204067L77.79215962600708,90.36092622496949L78.39519962310791,89.83537802431883L78.99823962020875,99.98607570132103L79.60127961730957,94.61662389816743L80.20431961441041,97.17074987212746L80.80735961151123,93.66661206276149L81.41039960861207,91.62039164842318L82.01343960571289,91.26439727266111L82.61647960281373,92.14881093924132L83.21951959991456,101.81567791052586L83.82255959701538,88.36694716867797L84.42559959411622,88.82571131543372L85.02863959121703,101.88434481703061L85.63167958831787,77.81125933805622L86.23471958541869,92.96574011688571L86.83775958251952,96.052883286932L87.44079957962036,95.9208270092303L88.04383957672118,91.78609654808733L88.64687957382202,94.75664849133386L89.24991957092284,90.49132503757451L89.85295956802368,90.5998855339059L90.45599956512451,97.95578498291175L91.05903956222534,97.42677621705926L91.66207955932617,85.24175165141241L92.265119556427,101.38775024306855L92.86815955352783,91.98565118472561L93.47119955062867,93.02716341546798L94.07423954772949,92.71674586236404L94.67727954483033,95.24879079503626L95.28031954193115,88.59476193196443L95.88335953903199,89.1830025362714L96.48639953613281,95.60778802597346L97.08943953323364,92.77717052088806L97.69247953033448,94.86814249283634L98.2955195274353,83.19567687208261L98.89855952453614,95.03590708762059L99.50159952163696,88.81838795500661L100.1046395187378,94.48963017076099L100.70767951583863,89.10479653671032L101.31071951293946,94.8991974246475L101.9137595100403,98.10354210152914L102.51679950714112,84.68615409400923L103.11983950424195,89.53943381705895L103.72287950134276,88.23183255579792L104.3259194984436,100.16154508155464L104.92895949554443,80.38729297829393L105.53199949264526,92.85873999564532L106.13503948974609,96.7453638823184L106.73807948684691,93.05778144225368L107.34111948394775,87.54509414074641L107.94415948104857,93.11891347081897L108.54719947814941,91.91169634041248L109.15023947525025,93.91795728242028L109.75327947235107,87.87196151480975L110.3563194694519,100.70264848811249L110.95935946655273,94.74694642576802L111.56239946365356,87.10461065505683L112.1654394607544,93.62749172547993L112.76847945785522,93.80448680580253L113.37151945495606,102.54424824801706L113.97455945205688,95.21827679325665L114.57759944915772,95.02883338720804L115.18063944625855,92.75626842966903L115.78367944335938,91.66793107619574L116.38671944046021,95.125486487845L116.98975943756103,85.97224991901605L117.59279943466187,91.9268215762946L118.1958394317627,93.56842632703516L118.79887942886353,93.54582516071704L119.40191942596437,96.36224671997448L120.00495942306519,102.28994525068575L120.60799942016602,93.18514965968197L121.21103941726685,106.18193336017168L121.81407941436768,89.81246478298249L122.41711941146852,89.46053431745744L123.02015940856933,92.71807738244169L123.62319940567016,94.97066260381544L124.22623940277099,94.59533344692576L124.82927939987182,93.55124833103332L125.43231939697264,92.28160232698588L126.03535939407348,86.66277484428838L126.63839939117432,98.0815512152466L127.24143938827514,91.80340630909686L127.84447938537598,90.18031800943618L128.4475193824768,89.03550201266899L129.05055937957763,92.37425393238945L129.65359937667847,95.05737784887279L130.2566393737793,95.42921870055906L130.85967937088012,95.65593079878121L131.46271936798095,108.2893170105771L132.0657593650818,102.14788523490063L132.66879936218263,96.36866853034903L133.27183935928346,94.877567158386L133.87487935638427,88.70445976836217L134.4779193534851,77.3727592624823L135.08095935058594,94.54909779922923L135.68399934768678,82.97811203939393L136.28703934478762,93.29883512131224L136.89007934188842,89.29785307796965L137.49311933898926,90.94958292930073L138.0961593360901,94.15668080134296L138.69919933319093,91.13892924534366L139.30223933029174,86.90151223321186L139.90527932739258,92.0361865326729L140.5083193244934,87.44412053485749L141.11135932159425,101.91547950134643L141.71439931869506,97.55860363974762L142.3174393157959,91.63920630452048L142.92047931289673,94.26522742767352L143.52351930999754,96.45422563033881L144.12655930709838,95.52739750128498L144.7295993041992,88.74389911566232L145.33263930130005,92.84233871968877L145.93567929840088,95.15337905947172L146.5387192955017,98.33429036998669L147.14175929260253,90.3012020014863L147.74479928970337,95.83395225916365L148.3478392868042,78.56791642718547L148.95087928390504,94.61199825289768L149.55391928100585,96.91960576748042L150.15695927810668,83.02235734197438L150.75999927520752,90.75883574317609L151.36303927230836,89.74388456398279L151.9660792694092,98.96918272201447L152.56911926651,83.76453415025912L153.17215926361084,94.58205292115122L153.77519926071167,95.48692483892455L154.3782392578125,89.44875868677067L154.98127925491335,97.64437572474995L155.58431925201415,83.48144049874873L156.187359249115,95.92353165938803L156.79039924621583,89.26016828577181L157.39343924331666,96.10392488990882L157.9964792404175,91.67902707684289L158.5995192375183,88.44867614844452L159.20255923461914,94.88409299376659L159.80559923171998,97.38150453441895L160.40863922882082,94.8539465470084L161.01167922592165,96.918038457389L161.61471922302246,95.68150708027284L162.2177592201233,103.82616573528017L162.82079921722413,90.16188477836113L163.42383921432497,101.14704331403019L164.02687921142578,89.63521310764494L164.62991920852662,95.14433581894431L165.23295920562745,99.51855958405486L165.8359992027283,89.31843615917009L166.43903919982912,97.05981760565774L167.04207919692993,90.16661444863698L167.64511919403077,89.62813247223198L168.2481591911316,90.9411222288073L168.85119918823244,94.01307081296741L169.45423918533328,99.73511884168488L170.05727918243406,87.3207746176638L170.6603191795349,85.19414287363581L171.26335917663573,101.06980821452575L171.86639917373657,92.2632939259181L172.46943917083738,93.18275014954202L173.0724791679382,92.68227197535347L173.67551916503905,91.9661846385903L174.27855916213989,103.91714600558626L174.88159915924072,98.89854280789464L175.48463915634153,90.21045752119394L176.08767915344237,93.39191669674088L176.6907191505432,91.35724999307641L177.29375914764404,86.60861942612996L177.89679914474488,92.56186649833126L178.49983914184568,90.60358882412189L179.10287913894652,92.37101528720055L179.70591913604736,99.14447179223757L180.3089591331482,102.53104747474717L180.91199913024903,85.1191408442616L181.51503912734984,93.21888150164924L182.11807912445067,93.13342842666552L182.7211191215515,87.12554048627749L183.32415911865235,92.96315336173484L183.92719911575318,86.7844494263846L184.530239112854,92.28156071698345L185.13327910995483,92.18899926658514L185.73631910705566,88.04413676985124L186.3393591041565,90.4018357923554L186.94239910125734,84.2180623717095L187.54543909835814,86.27694609678633L188.14847909545898,100.6939242576037L188.75151909255982,100.46009684896657L189.35455908966065,98.67318303475136L189.95759908676146,92.7344439833962L190.5606390838623,92.38177147282786L191.16367908096313,95.20843602768272L191.76671907806397,94.34537522734786L192.3697590751648,96.2907052558021L192.97279907226562,97.35426385283026L193.57583906936645,88.17314164737499L194.1788790664673,99.3382010285361L194.78191906356813,85.88780241909096L195.38495906066896,96.30962393690547L195.98799905776977,85.76189055174761L196.5910390548706,97.84595538150634L197.19407905197144,90.35883878984774L197.79711904907228,92.99241906344164L198.40015904617312,87.65354367707133L199.00319904327392,88.80224327406503L199.60623904037476,91.51814200245985L200.2092790374756,88.86074693747705L200.81231903457643,87.13435487179156L201.41535903167727,94.46649500941172L202.01839902877808,91.06732536616764L202.6214390258789,99.29596687607295L203.22447902297975,86.36482642191163L203.8275190200806,87.22455148705194L204.43055901718142,90.5577346014476L205.03359901428223,98.51813029570849L205.63663901138307,88.69386308774415L206.2396790084839,101.9632096416301L206.84271900558474,93.3919583067433L207.44575900268552,91.8300921906532L208.04879899978636,97.78206322278007L208.6518389968872,92.49970115470569L209.25487899398803,98.39049854826484L209.85791899108887,85.99247931519585L210.46095898818967,94.175731247454L211.0639989852905,102.6106127343875L211.66703898239135,90.54928083595459L212.27007897949218,86.51182762548494L212.87311897659302,90.42931919895827L213.47615897369383,93.12938532142971L214.07919897079466,85.3598061632975L214.6822389678955,86.86857791629109L215.28527896499634,93.11233215543515L215.88831896209715,89.96538847690121L216.49135895919798,92.0939134760396L217.09439895629882,94.53856353361485L217.69743895339965,94.86820490783998L218.3004789505005,92.42636352542854L218.9035189476013,94.03715606937212L219.50655894470214,99.84036440782293L220.10959894180297,85.66378803602613L220.7126389389038,82.21781407505235L221.31567893600464,92.5981712254486L221.91871893310545,85.61862731339231L222.5217589302063,83.66137601924281L223.12479892730713,83.8596892908087L223.72783892440796,94.34389807226171L224.3308789215088,96.78935952488428L224.9339189186096,101.84883414745957L225.53695891571044,104.31642865387298L226.13999891281128,98.45841300722569L226.74303890991212,96.23675788765581L227.34607890701295,94.15143100603677L227.94911890411376,89.92506144954928L228.5521589012146,96.09096337415289L229.15519889831543,98.04188301293311L229.75823889541627,85.44526617328165L230.3612788925171,95.12124920259785L230.9643188896179,97.64394575472488L231.56735888671875,89.65298057868117L232.1703988838196,96.43704763433698L232.77343888092042,91.30796294520192L233.37647887802126,92.21136464288952L233.97951887512207,94.57052001547859L234.5825588722229,104.49014694650444L235.18559886932374,98.24619505984887L235.78863886642458,98.92108155920914L236.3916788635254,94.15992638153224L236.99471886062622,92.44768171667184L237.59775885772706,90.97142124557436L238.2007988548279,92.0404030129188L238.80383885192873,89.05024582352885L239.40687884902954,94.84767037164238L240.00991884613038,94.86667920775099L240.6129588432312,96.67600694327339L241.21599884033205,86.76447662521976L241.81903883743288,86.09321019607061L242.4220788345337,89.36759144203688L243.02511883163453,101.46443747754105L243.62815882873537,98.3829671378256L244.2311988258362,88.0484295351016L244.83423882293704,86.1073506618953L245.43727882003782,85.39008437506338L246.04031881713865,92.6759472549846L246.6433588142395,98.6200470616524L247.24639881134033,92.10410792663416L247.84943880844114,90.63602382101354L248.45247880554197,94.53138580819623L249.0555188026428,98.20098579221221L249.65855879974364,100.49848901120563L250.26159879684448,96.30568485667573L250.8646387939453,90.66698166281904L251.46767879104613,92.91812440410868L252.07071878814696,87.78287449961408L252.6737587852478,96.92630497787113L253.27679878234864,92.83473102424509L253.87983877944944,95.36300331669727L254.48287877655028,89.9938289135599L255.08591877365112,99.15079651260643L255.68895877075195,97.35349406778536L256.29199876785276,92.34699938079993L256.8950387649536,85.26919344801286L257.49807876205443,100.73939705525572L258.10111875915527,87.69271949435611L258.7041587562561,92.31084028869108L259.30719875335694,89.2666663811508L259.9102387504578,90.184069844655L260.5132787475586,87.21847642669763L261.1163187446594,97.48587629050607L261.71935874176023,98.37397937730142L262.32239873886107,89.15802959981497L262.9254387359619,93.83359993750045L263.52847873306274,85.27162069815442L264.1315187301636,100.41187085615397L264.7345587272644,91.29130507423042L265.33759872436525,91.59060582168604L265.9406387214661,100.03174961398477L266.5436787185669,90.98806524654506L267.1467187156677,101.5170741306109L267.74975871276854,94.95265934276549L268.3527987098694,96.98834549148941L268.9558387069702,100.3610927831925L269.55887870407105,94.17004454712233" fill="none"></path></g></g></g></g></g></g><g transform="translate(28, 174)" clip-path="url(#clip_1)"><clipPath id="clip_1"><rect width="301" height="25"></rect></clipPath><g><g><line x1="0" y1="0" x2="0" y2="5" style="visibility: inherit;" fill="rgb(0, 0, 0)" stroke="rgb(204, 204, 204)" stroke-width="1px"></line><line x1="30.151999855041506" y1="0" x2="30.151999855041506" y2="5" style="visibility: inherit;" fill="rgb(0, 0, 0)" stroke="rgb(204, 204, 204)" stroke-width="1px"></line><line x1="60.30399971008301" y1="0" x2="60.30399971008301" y2="5" style="visibility: inherit;" fill="rgb(0, 0, 0)" stroke="rgb(204, 204, 204)" stroke-width="1px"></line><line x1="90.45599956512451" y1="0" x2="90.45599956512451" y2="5" style="visibility: inherit;" fill="rgb(0, 0, 0)" stroke="rgb(204, 204, 204)" stroke-width="1px"></line><line x1="120.60799942016602" y1="0" x2="120.60799942016602" y2="5" style="visibility: inherit;" fill="rgb(0, 0, 0)" stroke="rgb(204, 204, 204)" stroke-width="1px"></line><line x1="150.75999927520752" y1="0" x2="150.75999927520752" y2="5" style="visibility: inherit;" fill="rgb(0, 0, 0)" stroke="rgb(204, 204, 204)" stroke-width="1px"></line><line x1="180.91199913024903" y1="0" x2="180.91199913024903" y2="5" style="visibility: inherit;" fill="rgb(0, 0, 0)" stroke="rgb(204, 204, 204)" stroke-width="1px"></line><line x1="211.0639989852905" y1="0" x2="211.0639989852905" y2="5" style="visibility: inherit;" fill="rgb(0, 0, 0)" stroke="rgb(204, 204, 204)" stroke-width="1px"></line><line x1="241.21599884033205" y1="0" x2="241.21599884033205" y2="5" style="visibility: inherit;" fill="rgb(0, 0, 0)" stroke="rgb(204, 204, 204)" stroke-width="1px"></line><line x1="271.36799869537356" y1="0" x2="271.36799869537356" y2="5" style="visibility: inherit;" fill="rgb(0, 0, 0)" stroke="rgb(204, 204, 204)" stroke-width="1px"></line><line x1="301.51999855041504" y1="0" x2="301.51999855041504" y2="5" style="visibility: inherit;" fill="rgb(0, 0, 0)" stroke="rgb(204, 204, 204)" stroke-width="1px"></line></g><g transform="translate(0, 8)"><text style="text-anchor: middle; visibility: hidden; font-family: &quot;Helvetica Neue&quot;, sans-serif; font-size: 12px; font-weight: 200;" x="0" y="0" dx="0em" dy="0.95em" fill="rgb(50, 49, 63)" stroke="none" stroke-width="1px">-5k</text><text style="text-anchor: middle; visibility: inherit; font-family: &quot;Helvetica Neue&quot;, sans-serif; font-size: 12px; font-weight: 200;" x="30.151999855041506" y="0" dx="0em" dy="0.95em" fill="rgb(50, 49, 63)" stroke="none" stroke-width="1px">0</text><text style="text-anchor: middle; visibility: inherit; font-family: &quot;Helvetica Neue&quot;, sans-serif; font-size: 12px; font-weight: 200;" x="60.30399971008301" y="0" dx="0em" dy="0.95em" fill="rgb(50, 49, 63)" stroke="none" stroke-width="1px">5k</text><text style="text-anchor: middle; visibility: inherit; font-family: &quot;Helvetica Neue&quot;, sans-serif; font-size: 12px; font-weight: 200;" x="90.45599956512451" y="0" dx="0em" dy="0.95em" fill="rgb(50, 49, 63)" stroke="none" stroke-width="1px">10k</text><text style="text-anchor: middle; visibility: inherit; font-family: &quot;Helvetica Neue&quot;, sans-serif; font-size: 12px; font-weight: 200;" x="120.60799942016602" y="0" dx="0em" dy="0.95em" fill="rgb(50, 49, 63)" stroke="none" stroke-width="1px">15k</text><text style="text-anchor: middle; visibility: inherit; font-family: &quot;Helvetica Neue&quot;, sans-serif; font-size: 12px; font-weight: 200;" x="150.75999927520752" y="0" dx="0em" dy="0.95em" fill="rgb(50, 49, 63)" stroke="none" stroke-width="1px">20k</text><text style="text-anchor: middle; visibility: inherit; font-family: &quot;Helvetica Neue&quot;, sans-serif; font-size: 12px; font-weight: 200;" x="180.91199913024903" y="0" dx="0em" dy="0.95em" fill="rgb(50, 49, 63)" stroke="none" stroke-width="1px">25k</text><text style="text-anchor: middle; visibility: inherit; font-family: &quot;Helvetica Neue&quot;, sans-serif; font-size: 12px; font-weight: 200;" x="211.0639989852905" y="0" dx="0em" dy="0.95em" fill="rgb(50, 49, 63)" stroke="none" stroke-width="1px">30k</text><text style="text-anchor: middle; visibility: inherit; font-family: &quot;Helvetica Neue&quot;, sans-serif; font-size: 12px; font-weight: 200;" x="241.21599884033205" y="0" dx="0em" dy="0.95em" fill="rgb(50, 49, 63)" stroke="none" stroke-width="1px">35k</text><text style="text-anchor: middle; visibility: inherit; font-family: &quot;Helvetica Neue&quot;, sans-serif; font-size: 12px; font-weight: 200;" x="271.36799869537356" y="0" dx="0em" dy="0.95em" fill="rgb(50, 49, 63)" stroke="none" stroke-width="1px">40k</text><text style="text-anchor: middle; visibility: hidden; font-family: &quot;Helvetica Neue&quot;, sans-serif; font-size: 12px; font-weight: 200;" x="301.51999855041504" y="0" dx="0em" dy="0.95em" fill="rgb(50, 49, 63)" stroke="none" stroke-width="1px">45k</text></g><line x1="0" y1="0" x2="301.51999855041504" y2="0" fill="rgb(0, 0, 0)" stroke="rgb(204, 204, 204)" stroke-width="1px"></line></g></g></g></g></svg>